# xmcd
#
# Track frame offsets:
#	150
#	19696
#	35558
#	53609
#	70498
#	87388
#	105701
#	118472
#	136736
#	151560
#	165890
#	180658
#	196058
#	209406
#
# Disc length: 3036 seconds
#
# Revision: 3
# Processed by: cddbd v1.5.2PL0 Copyright (c) Steve Scherf et al.
# Submitted via: audiograbber 1.83.01
#
DISCID=b40bda0e
DTITLE=Hitz - Country 2006 Volume 2
DYEAR=2006
DGENRE=Country
TTITLE0=Keith Urban - Tonight I Wanna Cry
TTITLE1=Kenny Chesney - Living In Fast Forward
TTITLE2=Keith Anderson - Every Time I Hear Your Name
TTITLE3=Dierks Bentley - Settle For A Slowdown
TTITLE4=Gary Allan - Life Ain't Always Beautiful
TTITLE5=Lonestar - I'll Die Tryin'
TTITLE6=Joe Nichols - Size Matters (Someday)
TTITLE7=Litle Big Town - Bring It On Home
TTITLE8=John Pierce - I'd Still Have You
TTITLE9=Susan Haynes - Drinkin' My Sunday Dress
TTITLE10=Reba McEntire - Love Needs A Holiday
TTITLE11=Shooter Jennings - Aviators
TTITLE12=Martina McBride - I Still Miss Someone
TTITLE13=Terri Clark - Damn Right
EXTD=
EXTT0=
EXTT1=
EXTT2=
EXTT3=
EXTT4=
EXTT5=
EXTT6=
EXTT7=
EXTT8=
EXTT9=
EXTT10=
EXTT11=
EXTT12=
EXTT13=
PLAYORDER=
